<?xml version="1.0" encoding="iso-8859-1"?>
<!-- Generator: Adobe Illustrator 25.1.0, SVG Export Plug-In . SVG Version: 6.00 Build 0)  -->
<svg version="1.1" id="Calque_1" xmlns="http://www.w3.org/2000/svg" xmlns:xlink="http://www.w3.org/1999/xlink" x="0px" y="0px"
	 width="711px" height="258.326px" viewBox="0 0 711 258.326" enable-background="new 0 0 711 258.326" xml:space="preserve">
<path fill="#231F20" d="M711,146.244v6.24h-16.978l0,0c-3.347,0-6.473,1.79-8.177,4.671l-1.165,1.961
	c-1.116,1.9-3.224,2.844-5.382,2.415c-2.157-0.429-3.751-2.108-4.07-4.291l-2.403-16.794l-15.985,112.853
	c-0.368,2.562-2.476,4.389-5.051,4.389c-0.037,0-0.086,0-0.123,0c-2.623-0.061-4.72-1.998-4.965-4.621L623.829,12.723
	l-38.602,179.871c-0.539,2.501-2.66,4.143-5.259,4.033c-2.55-0.135-4.536-1.998-4.818-4.548l-6.877-62.727l-9.537,37.18
	c-0.588,2.317-2.685,3.849-5.063,3.837c-2.39-0.061-4.401-1.741-4.879-4.082l-5.712-27.839l-1.373,3.739
	c-2.268,6.142-8.598,9.877-19.467,10.273c3.973,1.574,5.125,2.118,6.929,2.953c2.24,1.037,5.024,2.463,6.262,7.712
	c1.275,6.656,1.14,11.057,1.14,11.057s0.846,4.965,4.107,19.271c0,0,4.107,8.078-2.415,9.353c0,0-0.711,7.233-5.382,6.951
	l-4.536,2.415c0,0-7.944,2.415-8.226-11.903c0,0-0.711-5.1,4.818-4.389c0,0,3.114,0.147,4.254-3.825
	c1.128-3.972,0.993-12.332,0.993-12.332s0.564-2.268-3.408-5.1c-3.972-2.832-5.958-7.233-8.789-9.5
	c-2.832-2.268-13.325-5.529-23.953-5.529s-14.171-3.543-14.171-3.543s-7.367,9.218-14.171,13.043c0,0-3.543,3.408,2.697,7.085
	c6.24,3.69,14.036,18.425,20.129,21.833s6.656,4.818,6.656,7.944c0,3.114-1.422,8.924-1.422,8.924s-0.429,3.408-8.507,2.979
	l-12.332,5.676c0,0-2.55,4.536-6.522,3.543s-4.107-3.69-6.804-3.69c-2.697,0-5.529,0.564-5.529,0.564l-3.261,1.557l-7.367,0.147
	c0,0-5.247,0.993-3.825-4.389c1.422-5.382,5.676-13.889,7.931-14.171c2.268-0.282,6.656,2.979,6.656,2.979s0.282,3.972,4.536,3.543
	c4.254-0.429,19.136-3.972,19.136-3.972s-6.522-8.226-14.171-13.607c-7.649-5.382-19.847-15.875-19.847-15.875
	s-13.46-5.1-14.318-10.346c0,0-19.565,6.951-24.382,0.429c0,0-0.147,12.614,4.818,20.263c4.965,7.649,3.972,11.057,3.972,11.057
	s4.683,11.192,9.635,15.875c4.965,4.683,22.96,23.524,27.778,25.228c4.818,1.704,8.642,5.676,8.642,5.676l1.14,0.429l5.676,6.522
	c0,0,2.268,2.55-1.422,2.979c-3.69,0.429-15.029-1.986-15.029-1.986s-3.825-0.711-4.536-5.811c0,0-4.389,2.121-8.789-3.972
	c-4.389-6.093-10.775-11.621-10.775-11.621l-20.974-20.693l-9.071-7.931c0,0-2.832-0.429-5.247-9.5s-13.325-28.06-13.325-28.06
	s-14.318-4.254-18.854-9.218c0,0,4.536,19.982,9.782,28.06l0,0l10.297,14.477l22.801,13.877c0,0,8.63,4.229,9.194,7.833
	c0.576,3.604,9.01,8.385,9.01,8.385s2.942,0.515,2.648,6.178l3.567,3.408c0,0,1.716,5.259-4.572,7.6
	c-6.301,2.354-15.765-1.949-17.334-9.182l1.643-4.56c0,0,1.753-2.427-1.348-2.807c-3.101-0.38-1.532,3.15-8.397-7.061
	c-6.877-10.211-18.192-14.649-18.192-14.649s-5.786,0.87-11.045-5.982c-4.646-6.056-10.248-4.671-11.302-5.749
	c-0.123-0.123-0.221-0.257-0.306-0.38l-0.11,0.098c0,0-1.986-1.128-2.979-7.931c-0.993-6.804-8.924-16.868-13.178-19.418
	c-4.254-2.55-24.1-9.635-35.722-28.489c0,0-8.789,14.882-24.1,14.882c0,0-20.411,24.1-45.639,14.453
	c-25.228-9.635-39.264-6.656-39.264-6.656s10.003-4.156,30.119-3.763c-5.296-0.319-15.201-5.144-27.704-8.373
	c-7.233-1.868-11.977-1.226-11.977-1.226l0,0c-3.347,0-6.473,1.79-8.176,4.671l-1.165,1.961c-1.116,1.9-3.224,2.844-5.394,2.415
	c-2.158-0.429-3.751-2.108-4.058-4.291l-2.403-16.794l-15.985,112.853c-0.368,2.562-2.476,4.389-5.051,4.389
	c-0.037,0-0.086,0-0.123,0c-2.623-0.061-4.72-1.998-4.965-4.621L114.532,12.723L75.93,192.606c-0.539,2.501-2.685,4.143-5.259,4.033
	c-2.55-0.135-4.536-1.998-4.818-4.548l-6.877-62.727l-9.537,37.18c-0.588,2.317-2.672,3.849-5.063,3.837
	c-2.39-0.061-4.401-1.741-4.879-4.082l-5.713-27.839l-1.373,3.739c-2.268,6.142-8.189,10.273-14.735,10.273H0v-6.24h17.677
	c3.947,0,7.515-2.488,8.887-6.191l2.746-7.453c0.797-2.158,2.905-3.494,5.173-3.322c2.305,0.172,4.156,1.802,4.621,4.07l5.516,26.92
	l9.868-38.443c0.625-2.427,2.783-3.996,5.308-3.825c2.501,0.184,4.438,2.047,4.707,4.536l6.791,61.943L109.96,4.265
	c0.539-2.525,2.721-4.168,5.283-4.021c2.574,0.147,4.548,2.047,4.793,4.609l22.678,238.124l15.765-111.259
	c0.355-2.538,2.488-4.389,5.051-4.389l0,0c2.562,0,4.695,1.839,5.051,4.376l3.077,21.514c2.905-4.315,7.821-6.963,13.055-6.963l0,0
	c4.242,0.386,12.733,1.068,16.966,1.545c7.694,0.865,17.064,1.876,22.066,0.748c8.544-1.912,14.159-6.142,15.997-9.28
	c3.776-6.436,6.534-12.21,19.001-23.009c9.255-8.029,20.717-12.369,28.906-11.621c10.481,0.944,17.174-0.588,17.174-0.588
	s6.093-15.593,26.785-25.228s38.553-6.374,45.075-5.382c6.522,0.993,24.235,0.564,24.235,0.564l9.353-3.825
	c0,0,1.667-2.243,4.389-5.798c-1.189-0.478-2.023,0.27-4.548,2.145c-4.634,3.445-9.807,2.268-9.807,2.268s5.271-2.709,8.348-6.534
	c-1.728,0.086-10.628,0.368-10.346-6.987c10.444,4.45,21.661-3.567,23.61-5.087c8.483-6.62,16.157-15.188,22.887-21.967
	c-3.371,1.532-12.087,1.716-14.171-4.094c10.8,3.175,24.897-5.271,26.184-6.093c4.953-3.15,8.054-3.714,8.054-3.714
	s0.368-1.765,0.699-1.263c0,0,0-6.804-1.14-8.226c-1.128-1.422-2.415-5.663,0.282-4.683c2.697,0.993,7.796,7.649,7.796,7.649
	s2.979-2.415,4.683-0.564c0,0,3.972-5.811,11.339-1.986l4.536-5.1c0,0,2.697-1.14,2.697,3.114c0,0,2.415,4.683,1.557,9.782
	c0,0,5.382,2.697,3.972,11.768l6.374,8.507c0,0,3.69,3.261,2.121,9.218c-1.557,5.958-3.261,13.754-0.993,20.129
	c1.054,2.954,4.818,14.036,4.818,14.036s1.422,4.818,2.979,5.382c1.557,0.564,0.993,3.543,0,6.24
	c-0.993,2.697-4.389,10.91-4.389,10.91s0.711,2.415-5.247,1.839c-5.958-0.564-5.529,0-5.529,0s-3.972,0.564-6.24-4.107
	c-2.268-4.683-2.832-6.804-2.268-9.917c0.564-3.114-13.043-13.325-13.043-13.325l0.993,20.263c0,0,1.263,6.252,4.818,9.218
	c5.1,4.254,14.735,13.043,10.064,31.75c0,0,9.399,9.8,13.546,11.302c4.154,1.505,13.341,0.857,17.677,0
	c3.012-0.595,7.515-2.488,8.888-6.191l2.746-7.453c0.797-2.158,2.868-3.494,5.173-3.322c2.292,0.172,4.156,1.802,4.622,4.07
	l5.516,26.92l9.868-38.455c0.625-2.427,2.819-3.984,5.308-3.825c2.501,0.184,4.438,2.047,4.707,4.536l6.791,61.943L619.256,4.277
	c0.539-2.513,2.709-4.168,5.283-4.021s4.536,2.047,4.781,4.609l22.678,238.124l15.765-111.259c0.356-2.538,2.489-4.389,5.051-4.389
	l0,0c2.562,0,4.695,1.839,5.051,4.389l3.077,21.502c2.905-4.315,7.821-6.963,13.055-6.963c0,0,0,0,0.012,0L711,146.244z"/>
</svg>
